<svg xmlns="http://www.w3.org/2000/svg" version="1.1" xmlns:xlink="http://www.w3.org/1999/xlink" xmlns:svgjs="http://svgjs.dev/svgjs" width="2000" height="4796" viewBox="0 0 2000 4796"><g transform="matrix(1,0,0,1,2.216553595657956,1.9417004048582385)"><svg viewBox="0 0 103 247" data-background-color="#89939e" preserveAspectRatio="xMidYMid meet" height="4796" width="2000" xmlns="http://www.w3.org/2000/svg" xmlns:xlink="http://www.w3.org/1999/xlink"><g id="tight-bounds" transform="matrix(1,0,0,1,-0.11415251017638184,-0.09999999999999432)"><svg viewBox="0 0 103.22830502035278 247.2" height="247.2" width="103.22830502035278"><g><svg></svg></g><g><svg viewBox="0 0 103.22830502035278 247.2" height="247.2" width="103.22830502035278"><g transform="matrix(1,0,0,1,0,47.215199999999996)"><svg viewBox="0 0 103.22830502035278 152.7696" height="152.7696" width="103.22830502035278"><g><svg viewBox="0 0 103.22830502035278 152.7696" height="152.7696" width="103.22830502035278"><g><svg viewBox="0 0 103.22830502035278 152.7696" height="152.7696" width="103.22830502035278"><g><svg viewBox="0 0 103.22830502035278 152.7696" height="152.7696" width="103.22830502035278"><g id="textblocktransform"><svg viewBox="0 0 103.22830502035278 152.7696" height="152.7696" width="103.22830502035278" id="textblock"><g><svg viewBox="0 0 103.22830502035278 152.7696" height="152.7696" width="103.22830502035278"><g transform="matrix(1,0,0,1,0,0)"><svg width="103.22830502035278" viewBox="1 -36.85 24.9 36.85" height="152.7696" data-palette-color="#000000"><path d="M2.9 0L2.9 0Q2.5 0 2.05-0.18 1.6-0.35 1.3-0.68 1-1 1-1.4L1-1.4Q1-1.6 1.05-1.75L1.05-1.75 11.5-35.7Q11.7-36.3 12.25-36.58 12.8-36.85 13.45-36.85L13.45-36.85Q14.15-36.85 14.73-36.55 15.3-36.25 15.45-35.7L15.45-35.7 25.85-1.75Q25.9-1.6 25.9-1.45L25.9-1.45Q25.9-1.05 25.6-0.73 25.3-0.4 24.85-0.2 24.4 0 23.9 0L23.9 0Q23.5 0 23.15-0.2 22.8-0.4 22.7-0.85L22.7-0.85 20.35-8.55 6.55-8.55 4.25-0.85Q4.1-0.4 3.75-0.2 3.4 0 2.9 0ZM13.45-31.55L7.35-11.4 19.5-11.4 13.45-31.55Z" opacity="1" transform="matrix(1,0,0,1,0,0)" fill="#ffffff" class="wordmark-text-0" data-fill-palette-color="primary" id="text-0"></path></svg></g></svg></g></svg></g></svg></g><g></g></svg></g></svg></g></svg></g><path d="M0 41.215L0 1 103.228 1 103.228 41.215 89.451 41.215 89.451 14.777 13.777 14.777 13.777 41.215 0 41.215M0 205.985L0 246.2 103.228 246.2 103.228 205.985 89.451 205.985 89.451 232.423 13.777 232.423 13.777 205.985 0 205.985" fill="#ffffff" stroke="transparent" data-fill-palette-color="tertiary"></path></svg></g><defs></defs></svg><rect width="103.22830502035278" height="247.2" fill="none" stroke="none" visibility="hidden"></rect></g></svg></g></svg>